<svg xmlns="http://www.w3.org/2000/svg" fill="none" viewBox="0 0 40 40" height="40" width="40">
<path fill="#04D1AD" d="M40 13.6602V13.0082H33.3328C29.8306 13.0082 26.9923 10.1692 26.9923 6.66796V0L26.3404 0V6.6671C26.3404 10.1692 23.5013 13.0074 20 13.0074C16.4978 13.0074 13.6596 10.1684 13.6596 6.6671V0L13.0076 0V6.6671C13.0076 10.1692 10.1686 13.0074 6.66723 13.0074H0L0 13.6593H6.66723C10.1694 13.6593 13.0076 16.4983 13.0076 19.9996C13.0076 23.5017 10.1686 26.3407 6.66723 26.3407H0L0 26.9926H6.66723C10.1694 26.9926 13.0076 29.8316 13.0076 33.3329V40H13.6596V33.3329C13.6596 29.8308 16.4987 26.9926 20 26.9926C23.5022 26.9926 26.3404 29.8316 26.3404 33.3329V40H26.9923V33.3329C26.9923 29.8308 29.8314 26.9926 33.3328 26.9926H40V26.3407H33.3328C29.8306 26.3407 26.9923 23.5017 26.9923 20.0004C26.9923 16.4983 29.8314 13.6593 33.3328 13.6593H40V13.6602ZM19.9991 26.3416C16.4969 26.3416 13.6587 23.5025 13.6587 20.0013C13.6587 16.4992 16.4978 13.6602 19.9991 13.6602C23.5013 13.6602 26.3395 16.4992 26.3395 20.0004C26.3395 23.5025 23.5005 26.3416 19.9991 26.3416Z"></path>
</svg>
