<svg xmlns="http://www.w3.org/2000/svg" fill="none" viewBox="0 0 40 40" height="40" width="40">
<g clip-path="url(#clip0_1876_2932)">
<path fill="#04D1AD" d="M11.9929 22.5071C11.2643 23.1143 10.3357 23.55 9.32857 23.8286C8.02857 24.1786 7.2 24.9786 7.2 25.8714V39.9929H6.12857V25.8714C6.12857 24.9786 5.29286 24.1786 3.99286 23.8286C2.98571 23.55 2.05714 23.1071 1.32857 22.5071C0.442857 21.7714 0 20.8929 0 20C0 19.1071 0.442857 18.2214 1.32857 17.4929C2.05714 16.8857 2.98571 16.45 3.99286 16.1714C5.29286 15.8214 6.12857 15.0214 6.12857 14.1286V0L7.2 0V14.1214C7.2 15.0143 8.02857 15.8143 9.32857 16.1643C10.3357 16.4429 11.2643 16.8857 11.9929 17.4857C13.7714 18.95 13.7714 21.0357 11.9929 22.5V22.5071Z"></path>
<path fill="#04D1AD" d="M22.6638 26.0071C21.3638 25.6571 20.5352 24.85 20.5352 23.9643V16.0429C20.5352 15.1571 21.3638 14.35 22.6638 14C23.6781 13.7214 24.5995 13.2786 25.3352 12.6786C27.1066 11.2143 27.1066 9.13571 25.3352 7.67143C24.5995 7.06429 23.6781 6.62143 22.6638 6.35C21.3638 5.99286 20.5352 5.19286 20.5352 4.30714V0L19.4638 0V4.29286C19.4638 5.17857 18.6281 5.98571 17.3352 6.33571C16.3209 6.60714 15.3995 7.05714 14.6638 7.65714C12.8995 9.11429 12.8924 11.2 14.6638 12.6643C15.3995 13.2714 16.3209 13.7071 17.3352 13.9857C18.6281 14.3357 19.4638 15.1429 19.4638 16.0286V23.95C19.4638 24.8357 18.6281 25.6429 17.3352 25.9929C16.3209 26.2714 15.3995 26.7143 14.6638 27.3143C12.8995 28.7786 12.8924 30.8571 14.6638 32.3214C15.3995 32.9286 16.3209 33.3714 17.3352 33.6429C18.6281 34 19.4638 34.8 19.4638 35.6857V39.9786H20.5352V35.6857C20.5352 34.8 21.3638 33.9929 22.6638 33.6429C23.6781 33.3714 24.5995 32.9214 25.3352 32.3214C27.1066 30.8571 27.1066 28.7786 25.3352 27.3143C24.5995 26.7071 23.6781 26.2714 22.6638 25.9929V26.0071Z"></path>
<path fill="#04D1AD" d="M39.9997 20C39.9997 20.8929 39.5569 21.7786 38.6712 22.5071C37.9354 23.1143 37.014 23.55 35.9997 23.8286C34.7069 24.1786 33.8711 24.9786 33.8711 25.8714V39.9929H32.7997V25.8714C32.7997 24.9786 31.9711 24.1786 30.6711 23.8286C29.6569 23.55 28.7354 23.1071 27.9997 22.5071C26.2283 21.0429 26.2354 18.9571 27.9997 17.4929C28.7354 16.8857 29.6569 16.45 30.6711 16.1714C31.9711 15.8214 32.7997 15.0214 32.7997 14.1286V0L33.8711 0V14.1214C33.8711 15.0143 34.7069 15.8143 35.9997 16.1643C37.014 16.4429 37.9354 16.8857 38.6712 17.4857C39.5569 18.2214 39.9997 19.1 39.9997 19.9929V20Z"></path>
</g>
<defs>
<clipPath id="clip0_1876_2932">
<rect fill="white" height="40" width="40"></rect>
</clipPath>
</defs>
</svg>
