<svg xmlns="http://www.w3.org/2000/svg" fill="none" viewBox="0 0 40 40" height="40" width="40">
<path fill="#04D1AD" d="M33.2899 19.9918C25.928 19.9918 19.9528 28.9549 19.9528 40C19.9528 28.9557 13.9889 19.9918 6.62695 19.9918C13.9889 19.9918 19.9528 11.0443 19.9528 0C19.9528 11.0443 25.9271 19.9918 33.2899 19.9918Z"></path>
<path fill="#04D1AD" d="M39.9992 19.9918C32.6373 19.9918 26.6621 28.9549 26.6621 40V0C26.6621 11.0443 32.6364 19.9918 39.9992 19.9918Z"></path>
<path fill="#04D1AD" d="M0 20.0082C7.36191 20.0082 13.3371 11.0451 13.3371 0C13.3371 11.0443 13.3371 28.9557 13.3371 40C13.3371 28.9557 7.36277 20.0082 0 20.0082Z"></path>
</svg>
